<svg width="49" height="48" viewBox="0 0 49 48" fill="none" xmlns="http://www.w3.org/2000/svg">
<path d="M38.6688 38.056C40.4019 37.3245 42.4681 37.0583 45.1342 37.1246C45.0592 36.6268 44.1065 36.0355 43.4086 35.6024C43.1743 35.457 42.9687 35.3294 42.8346 35.2291C41.7681 34.4643 40.635 33.6658 39.502 32.9677C39.137 32.7451 38.6115 32.5594 38.1058 32.3807C37.7805 32.2657 37.4633 32.1536 37.2024 32.0365C36.9358 31.9281 36.5727 31.8197 36.1806 31.7026C35.2494 31.4246 34.155 31.0978 33.8031 30.6065C32.8969 29.4308 32.2645 28.0092 31.633 26.5896C31.5678 26.4429 31.5025 26.2963 31.437 26.1499C31.1064 25.3958 30.7387 24.6269 30.3689 23.8536C29.9558 22.99 29.5402 22.1209 29.1709 21.2611C29.0099 20.9108 28.8876 20.5797 28.7671 20.2538C28.6131 19.837 28.4622 19.4287 28.2378 18.9996C25.8048 14.3104 22.2058 10.3859 17.8399 7.62557C16.4067 6.72758 14.8073 5.89593 13.0408 5.33073C12.5014 5.1693 11.9038 5.14332 11.3003 5.11708C10.7853 5.09468 10.266 5.0721 9.77491 4.96498H9.07493C8.67085 4.85296 8.31213 4.52962 7.97843 4.22883C7.81677 4.08311 7.66099 3.94269 7.50876 3.83415C6.47552 3.13583 5.44249 2.66993 4.20937 2.17129C3.77618 1.97182 2.54307 1.50614 2.10987 1.8721C1.84309 1.93865 1.70991 2.03838 1.64322 2.3044C1.37665 2.70353 1.61019 3.30212 1.77661 3.66786C2.10694 4.37113 2.52463 4.88563 2.95265 5.41286C3.17237 5.6835 3.39482 5.9575 3.60956 6.2621C3.71213 6.40657 3.81906 6.55431 3.92778 6.70452C4.41967 7.38411 4.94832 8.11448 5.27587 8.82275C5.73808 9.81639 6.06754 10.8668 6.3958 11.9134C6.68284 12.8286 6.96897 13.7408 7.34214 14.6096C7.64195 15.3081 8.1086 16.1062 8.5418 16.7381C8.67767 16.9231 8.85479 17.0897 9.0341 17.2584C9.33848 17.5448 9.64914 17.837 9.77492 18.2347C10.099 18.7737 9.50399 20.3172 9.14247 21.255C9.05785 21.4745 8.98602 21.6608 8.94176 21.7933C8.07515 24.5202 8.24178 28.3116 9.24157 30.6728C9.2773 30.756 9.31277 30.8406 9.3485 30.9257C9.71265 31.7936 10.1035 32.7252 11.0745 32.9677C11.1047 32.9375 11.1076 32.9279 11.1141 32.9232C11.1219 32.9176 11.135 32.9194 11.2079 32.9011C11.2567 32.5188 11.2982 32.1395 11.3391 31.7654C11.4939 30.3497 11.6404 29.0105 12.141 27.8793C12.3795 27.2953 12.773 26.8237 13.1565 26.3641C13.3627 26.1171 13.5659 25.8736 13.7406 25.6179C13.9521 25.7445 14.0294 26.0317 14.1088 26.3268C14.1545 26.4967 14.2009 26.6692 14.274 26.8151C14.3054 26.8899 14.3371 26.9653 14.3689 27.0412C14.7753 28.0097 15.2125 29.0517 15.707 30.0077C16.8067 32.1362 18.04 34.198 19.4395 36.0605C19.906 36.7257 20.5727 37.4574 21.1726 38.056C21.2638 38.1357 21.3589 38.2036 21.4526 38.2706C21.6326 38.3993 21.8074 38.5242 21.939 38.7211H22.0057V38.8211C21.373 38.5895 20.8871 38.0915 20.4129 37.6054C20.1377 37.3234 19.8665 37.0453 19.5727 36.8256C18.073 35.6948 16.2736 33.9985 15.2403 32.3691C14.9149 31.6696 14.5707 30.9888 14.2218 30.2986C14.1062 30.07 13.9901 29.8404 13.874 29.6088C13.874 29.6088 13.8742 29.5754 13.874 29.5422C13.7467 29.7117 13.7275 29.8811 13.7045 30.0851C13.6914 30.2012 13.677 30.3285 13.6407 30.4734C13.5172 30.9475 13.456 31.4406 13.3968 31.9172C13.2485 33.1119 13.1131 34.2026 12.0411 34.6305C10.3415 35.3291 9.07494 33.4995 8.54181 32.6683C6.84225 29.908 6.3756 25.2519 7.57526 21.4939C7.66807 21.2047 7.73264 20.8953 7.79703 20.5868C7.91772 20.0085 8.03777 19.4333 8.34193 18.9996C8.27506 18.5999 8.0449 18.3929 7.81996 18.1906C7.70801 18.0898 7.59736 17.9903 7.50878 17.8688C7.04212 17.237 6.64238 16.5053 6.27566 15.807C5.74281 14.7689 5.32603 13.5765 4.92211 12.421C4.79542 12.0585 4.67 11.6997 4.54265 11.3504C4.42889 11.0586 4.3548 10.7666 4.28169 10.4786C4.20484 10.1758 4.12909 9.87737 4.00952 9.58783C3.69448 8.90663 3.17281 8.22557 2.68848 7.59327C2.55793 7.42283 2.43009 7.25593 2.30975 7.09353C2.17992 6.9076 2.00802 6.6921 1.8164 6.45188C0.876735 5.2739 -0.537187 3.50138 0.210243 1.70581C1.60999 -1.71965 6.50921 0.874172 8.40842 2.07156C8.59835 2.19341 8.79932 2.37032 9.00682 2.55298C9.30918 2.81912 9.62541 3.09749 9.94156 3.23557C10.3582 3.25226 10.7749 3.2772 11.1916 3.30214C11.6082 3.32706 12.0246 3.35199 12.441 3.36868C12.5775 3.40054 12.7132 3.43189 12.848 3.46305C14.2611 3.78961 15.5811 4.09465 16.7068 4.73214C22.4389 8.09125 26.1715 11.5167 29.6041 17.1705C30.0701 17.9313 30.388 18.7326 30.7118 19.5485C30.8975 20.0164 31.0851 20.4891 31.3036 20.9619C32.1368 22.8907 33.0703 24.9191 34.0364 26.7485C34.1579 26.991 34.2715 27.2413 34.3853 27.4922C34.6775 28.1358 34.9711 28.7828 35.4029 29.3094C35.5581 29.5307 35.9054 29.6488 36.2381 29.762C36.4053 29.8189 36.5689 29.8745 36.7025 29.9413C37.1336 30.1629 37.6004 30.364 38.0711 30.5668C38.8012 30.8813 39.5403 31.1998 40.1685 31.6042C42.1014 32.8014 43.9678 34.2312 45.6674 35.6948C46.0109 36.0016 46.2957 36.3768 46.5801 36.7515C46.8198 37.0675 47.0594 37.3831 47.3337 37.6571V37.9563C46.8006 38.1226 46.2672 38.2888 45.7341 38.4219C45.1539 38.5708 44.6068 38.6291 44.064 38.687C43.5153 38.7455 42.971 38.8035 42.4014 38.954C42.3296 38.9745 42.2561 38.9957 42.1811 39.0172C41.5251 39.2061 40.7598 39.4265 40.1018 39.4862C40.1351 39.5194 40.1685 39.5526 40.1685 39.5526C40.4898 40.465 41.8556 41.2495 42.975 41.8924C43.3652 42.1165 43.7254 42.3234 44.0011 42.5126C45.3009 43.4437 46.5005 44.5745 47.4671 45.8715C47.6332 46.0373 47.7994 46.1948 47.9656 46.3523C48.1327 46.5108 48.2998 46.6692 48.4669 46.836C48.5797 46.997 48.6536 47.1814 48.7262 47.3628C48.8036 47.556 48.8796 47.7458 49 47.9003V48C48.7084 47.8961 48.508 47.6883 48.3092 47.4821C48.1899 47.3583 48.0711 47.2351 47.9335 47.1354C47.6196 46.9218 47.3058 46.6899 46.992 46.458C46.5728 46.1482 46.1535 45.8383 45.7341 45.5723C45.0892 45.1658 44.3925 44.8456 43.6923 44.5238C43.0174 44.2137 42.3394 43.9021 41.7015 43.5103C40.9684 43.0446 40.2685 42.5126 39.5687 41.9805C38.9354 41.5148 38.2359 40.6166 37.8357 39.9517C37.7348 39.7936 37.6714 39.6231 37.6103 39.4589C37.53 39.2433 37.4538 39.0386 37.3023 38.8874C37.3522 38.415 37.8122 38.2957 38.25 38.1822C38.3977 38.1439 38.5428 38.1063 38.6688 38.056Z" fill="#00FF00" fill-opacity="0.5"/>
<path d="M9.77476 8.39044C10.1747 8.29071 10.5745 8.22394 11.1411 8.22394C11.2467 8.32943 11.3785 8.41919 11.5116 8.50983C11.7144 8.64795 11.9202 8.7881 12.0409 8.98903C12.1149 9.09248 12.1626 9.19592 12.2103 9.29937C12.27 9.42877 12.3297 9.55816 12.4409 9.68756C12.4409 10.4856 12.2077 11.0176 11.7409 11.3504C11.7409 11.3504 11.7076 11.3836 11.6744 11.417C11.5412 11.1512 11.4164 10.8855 11.2916 10.6198C11.1665 10.3533 11.0413 10.0869 10.9077 9.82046C10.778 9.6392 10.628 9.47304 10.4775 9.30628C10.2416 9.04479 10.0044 8.78185 9.84146 8.457H9.77476V8.39044Z" fill="#00FF00" fill-opacity="0.5"/>
</svg>
