<svg width="46" height="45" viewBox="0 0 46 45" fill="none" xmlns="http://www.w3.org/2000/svg">
<path d="M21.4445 0.0120925C21.3458 0.0208764 21.0318 0.05162 20.7491 0.0735797C14.2305 0.648924 8.12468 4.09221 4.25749 9.3845C2.10407 12.3271 0.72678 15.665 0.20637 19.2005C0.0224315 20.4346 0 20.7992 0 22.4725C0 24.1458 0.0224315 24.5103 0.20637 25.7445C1.45356 34.1814 7.58633 41.27 15.9039 43.8964C17.3934 44.3663 18.9636 44.6869 20.7491 44.8802C21.4445 44.9548 24.4503 44.9548 25.1457 44.8802C28.2278 44.5464 30.8388 43.7998 33.4139 42.5129C33.8087 42.3153 33.885 42.2626 33.8312 42.2187C33.7953 42.1923 32.1129 39.9832 30.0941 37.3129L26.4243 32.4598L21.8258 25.7972C19.2956 22.1343 17.2139 19.139 17.196 19.139C17.178 19.1346 17.1601 22.0948 17.1511 25.7093C17.1376 32.0381 17.1332 32.2929 17.0524 32.4422C16.9358 32.6574 16.846 32.7452 16.6576 32.8419C16.5141 32.9121 16.3884 32.9253 15.711 32.9253H14.9349L14.7285 32.7979C14.5939 32.7145 14.4952 32.6047 14.4279 32.4773L14.3337 32.2797L14.3427 23.4738L14.3561 14.6636L14.4952 14.4923C14.567 14.4001 14.7195 14.2815 14.8272 14.2244C15.0111 14.1366 15.0829 14.1278 15.8591 14.1278C16.7743 14.1278 16.9268 14.1629 17.1646 14.4177C17.2319 14.4879 19.7218 18.1596 22.7007 22.5823C25.6796 27.005 29.7531 33.0439 31.754 36.0084L35.3879 41.3974L35.5718 41.2788C37.2004 40.2423 38.9231 38.7666 40.2869 37.2294C43.1896 33.9662 45.0604 29.9871 45.6884 25.7445C45.8724 24.5103 45.8948 24.1458 45.8948 22.4725C45.8948 20.7992 45.8724 20.4346 45.6884 19.2005C44.4412 10.7636 38.3085 3.67497 29.9909 1.04859C28.5239 0.583045 26.9626 0.262433 25.213 0.0691877C24.7823 0.0252683 21.8169 -0.0230431 21.4445 0.0120925ZM30.8388 13.6008C31.0541 13.7062 31.2291 13.9082 31.2919 14.119C31.3278 14.2332 31.3368 16.6751 31.3278 22.1782L31.3143 30.0749L29.8922 27.9405L28.4655 25.806V20.0657C28.4655 16.3545 28.4835 14.2683 28.5104 14.1673C28.5822 13.9214 28.7392 13.7281 28.9546 13.6139C29.1385 13.5217 29.2058 13.5129 29.9101 13.5129C30.5741 13.5129 30.6908 13.5217 30.8388 13.6008Z" fill="#00FF00" fill-opacity="0.5"/>
</svg>
