<svg width="21" height="19" viewBox="0 0 21 19" fill="none" xmlns="http://www.w3.org/2000/svg">
<path d="M17.2761 6.25564C17.0616 6.18182 16.8394 6.11197 16.6106 6.04592C16.6482 5.89242 16.6827 5.74091 16.7134 5.59198C17.2172 3.14648 16.8878 1.17637 15.763 0.527723C14.6844 -0.0942421 12.9206 0.554256 11.1391 2.10459C10.9678 2.25366 10.796 2.4115 10.6243 2.57692C10.5099 2.46747 10.3957 2.36171 10.2817 2.26055C8.41475 0.602832 6.54337 -0.0957509 5.41967 0.554771C4.34215 1.17854 4.02305 3.03063 4.47655 5.34825C4.52034 5.57211 4.57153 5.80071 4.62942 6.03315C4.36456 6.10833 4.10887 6.18848 3.86422 6.27375C1.67537 7.03688 0.277466 8.23289 0.277466 9.47347C0.277466 10.7548 1.77812 12.0399 4.05798 12.8191C4.2379 12.8806 4.42458 12.9388 4.61698 12.994C4.55453 13.2454 4.50021 13.4917 4.45461 13.732C4.02221 16.0094 4.35989 17.8177 5.43454 18.4376C6.54455 19.0777 8.40746 18.4197 10.2215 16.834C10.3648 16.7087 10.5087 16.5758 10.6529 16.4365C10.8397 16.6164 11.0263 16.7866 11.2118 16.9464C12.9689 18.4584 14.7043 19.0689 15.7779 18.4474C16.8868 17.8054 17.2472 15.8628 16.7793 13.4994C16.7436 13.3189 16.702 13.1345 16.6553 12.9468C16.7862 12.9081 16.9146 12.8682 17.0398 12.8267C19.41 12.0414 20.952 10.7719 20.952 9.47347C20.952 8.2284 19.5091 7.02433 17.2761 6.25564ZM16.7621 11.9883C16.649 12.0257 16.533 12.0619 16.4148 12.097C16.1532 11.2686 15.8 10.3878 15.3679 9.47778C15.7803 8.58942 16.1197 7.71986 16.3741 6.89689C16.5856 6.95809 16.7908 7.02264 16.9886 7.09075C18.9018 7.74937 20.0688 8.72315 20.0688 9.47347C20.0688 10.2727 18.8085 11.3102 16.7621 11.9883ZM15.9129 13.6709C16.1198 14.716 16.1494 15.6609 16.0123 16.3995C15.8892 17.0633 15.6416 17.5058 15.3354 17.683C14.6838 18.0602 13.2905 17.5699 11.7878 16.2768C11.6155 16.1286 11.442 15.9703 11.268 15.8028C11.8505 15.1657 12.4327 14.425 13.001 13.6024C14.0004 13.5137 14.9447 13.3687 15.801 13.1708C15.8432 13.3409 15.8806 13.5078 15.9129 13.6709ZM7.3259 17.6179C6.68932 17.8427 6.18232 17.8491 5.87585 17.6724C5.22371 17.2963 4.9526 15.8443 5.3224 13.8967C5.36476 13.6737 5.41518 13.4445 5.47329 13.2103C6.32021 13.3976 7.25756 13.5324 8.25941 13.6136C8.83148 14.4185 9.43052 15.1584 10.0342 15.8062C9.9023 15.9336 9.77092 16.0548 9.64028 16.169C8.83814 16.8702 8.03431 17.3677 7.3259 17.6179ZM4.34362 11.9834C3.33551 11.6389 2.50297 11.191 1.93231 10.7024C1.41953 10.2632 1.16064 9.82724 1.16064 9.47347C1.16064 8.72065 2.28302 7.76041 4.15495 7.10776C4.38208 7.02856 4.61985 6.95393 4.86659 6.88382C5.1253 7.72538 5.46468 8.60524 5.87423 9.49497C5.45938 10.3979 5.11518 11.2918 4.85394 12.1432C4.67803 12.0926 4.50761 12.0394 4.34362 11.9834ZM5.34331 5.17864C4.95477 3.19296 5.21281 1.69503 5.86216 1.31915C6.55382 0.918727 8.08329 1.48965 9.69529 2.921C9.79834 3.01249 9.90178 3.10824 10.0055 3.20731C9.40483 3.85231 8.81127 4.58663 8.24429 5.38682C7.27195 5.47694 6.34119 5.62172 5.48543 5.81558C5.43163 5.59916 5.38397 5.38652 5.34331 5.17864ZM14.2614 7.38074C14.0568 7.02738 13.8468 6.68238 13.6327 6.3468C14.2923 6.43019 14.9243 6.54088 15.5179 6.67634C15.3397 7.24741 15.1176 7.8445 14.8562 8.4566C14.6686 8.10056 14.4703 7.74157 14.2614 7.38074ZM10.6246 3.83851C11.032 4.27986 11.44 4.77262 11.8412 5.30726C11.4369 5.28816 11.0275 5.27822 10.6148 5.27822C10.2059 5.27822 9.79955 5.28794 9.39769 5.3067C9.79937 4.77704 10.2109 4.28494 10.6246 3.83851ZM6.96455 7.38685C6.7602 7.7412 6.56553 8.09824 6.38093 8.45594C6.12374 7.84597 5.9037 7.24616 5.72397 6.667C6.31385 6.53499 6.94288 6.42706 7.59833 6.34525C7.38121 6.68393 7.16946 7.03147 6.96455 7.38678V7.38685ZM7.61721 12.6647C6.94001 12.5891 6.30152 12.4868 5.71179 12.3584C5.89439 11.7689 6.11928 11.1563 6.38193 10.5332C6.567 10.8906 6.76244 11.2478 6.96805 11.6029H6.96808C7.17752 11.9647 7.39449 12.3191 7.61721 12.6647ZM10.6491 15.1707C10.2304 14.719 9.81291 14.2194 9.40512 13.682C9.80099 13.6976 10.2046 13.7055 10.6148 13.7055C11.0362 13.7055 11.4527 13.696 11.8628 13.6778C11.4602 14.2249 11.0537 14.7252 10.6491 15.1707ZM14.8646 10.5014C15.1409 11.1313 15.3739 11.7407 15.5588 12.3201C14.9594 12.4569 14.3122 12.567 13.6303 12.6489C13.8449 12.3088 14.0567 11.9578 14.2649 11.5969C14.4755 11.2317 14.6755 10.8659 14.8646 10.5014ZM13.4999 11.1556C13.1767 11.716 12.8449 12.2509 12.5081 12.7559C11.8946 12.7997 11.2607 12.8223 10.6148 12.8223C9.97137 12.8223 9.34554 12.8023 8.7429 12.7632C8.39248 12.2517 8.05348 11.7151 7.73236 11.1604H7.73243C7.41216 10.6073 7.11738 10.0494 6.85029 9.49467C7.11731 8.93865 7.41131 8.38017 7.72974 7.82798L7.72967 7.82809C8.04895 7.27443 8.38498 6.74052 8.73215 6.23216C9.34701 6.18568 9.97752 6.16143 10.6147 6.16143H10.6148C11.2548 6.16143 11.8861 6.18587 12.5008 6.23275C12.8427 6.7374 13.1764 7.26957 13.497 7.8233C13.8211 8.38326 14.1189 8.93803 14.3882 9.48212C14.1197 10.0356 13.8226 10.5959 13.4999 11.1556ZM15.3218 1.29288C16.0142 1.69213 16.2834 3.30229 15.8484 5.41372C15.8207 5.54845 15.7894 5.68568 15.7555 5.82474C14.8977 5.62683 13.9663 5.47956 12.9911 5.38807C12.4231 4.57909 11.8344 3.84363 11.2435 3.20691C11.4023 3.05407 11.561 2.90834 11.719 2.77082C13.2453 1.44251 14.6719 0.918065 15.3218 1.29288ZM10.6148 7.6273C11.6343 7.6273 12.4609 8.45384 12.4609 9.47347C12.4609 10.4931 11.6343 11.3196 10.6148 11.3196C9.59516 11.3196 8.76859 10.4931 8.76859 9.47347C8.76859 8.45384 9.59516 7.6273 10.6148 7.6273Z" fill="#00FF00" fill-opacity="0.5"/>
</svg>
