<svg width="43" height="48" viewBox="0 0 43 48" fill="none" xmlns="http://www.w3.org/2000/svg">
<path fill-rule="evenodd" clip-rule="evenodd" d="M13.5621 29.3933C12.8001 29.8698 11.6519 30.6418 10.7637 31.4815C9.30558 32.8586 9.00045 34.7687 9.76968 35.2149C10.4812 35.6274 12.1424 35.1366 13.3313 33.8398C14.5791 32.4784 15.0936 30.7524 14.5622 28.7932C14.4998 28.8304 14.4385 28.8677 14.3783 28.9025L14.3796 28.9051L14.299 28.9508C13.9888 29.136 13.7353 29.2887 13.5621 29.3933ZM34.9758 28.7751C34.5441 29.7131 34.5225 30.015 34.6536 30.1089C35.2799 29.8839 36.3161 29.3416 36.3243 27.8885C36.3256 27.6709 36.2776 27.4374 36.2006 27.1934C35.531 27.7863 35.1451 28.407 34.9758 28.7751ZM41.6963 25.9389C40.0231 25.7439 38.7175 25.9785 37.7043 26.4007C37.8919 26.889 38.0361 27.3977 38.0564 27.9101C38.1035 29.0348 37.3293 29.8671 36.5226 30.4613C36.0514 30.8078 35.5501 31.0387 35.1293 31.1781C34.7929 31.32 34.3457 31.4667 34.0282 31.402C33.3285 31.2597 32.956 30.6382 33.4321 29.267C33.6892 28.525 34.4309 27.3954 35.6282 26.4225C35.3553 25.8607 35.0511 25.2883 34.8961 24.7624C34.5907 23.7257 34.4984 23.0991 34.4984 23.0991C34.4984 23.0991 33.5115 25.1451 32.2384 27.0057C32.165 27.1139 32.0917 27.2199 32.0183 27.3256C32.2684 27.9067 32.4654 28.5212 32.4921 29.1408C32.5389 30.2653 32.0521 31.1157 31.2442 31.7086C30.8068 32.0311 30.3402 32.2538 29.9399 32.3955C29.6839 32.5073 29.1633 32.6912 28.4229 32.7407C28.018 32.7684 27.6284 32.7433 27.411 32.5784C27.1116 32.3523 27.0755 32.0732 27.2305 31.6919C27.3616 31.3682 28.3424 30.2486 29.1648 29.2683C29.3919 28.9976 29.6082 28.721 29.8017 28.4648L29.797 28.4539C29.797 28.454 29.946 28.2616 30.1877 27.926C29.8871 27.2789 29.5061 26.6052 29.327 25.9943C29.0215 24.9576 28.9291 24.3308 28.9291 24.3308C28.9291 24.3308 27.9288 26.8953 26.8867 28.9424C26.0803 30.5279 25.5417 31.4887 25.299 31.9097L25.2965 31.9265C25.2965 31.9265 25.2603 31.988 25.1978 32.0842L25.1511 32.1622L25.1498 32.155C24.8793 32.5545 24.2723 33.3373 23.6689 33.3373C22.0124 33.3373 22.6206 29.9731 22.6206 29.9731C22.6206 29.9731 22.1363 31.2193 21.5905 32.2885C21.1459 33.1605 20.7408 33.8993 19.8549 33.8993C19.6 33.8993 19.1961 33.8919 18.8606 33.573C18.0998 32.8501 17.518 31.0146 17.6321 29.593C17.7294 28.3842 17.9157 27.547 18.1706 26.8484C17.7161 27.096 17.1909 27.3897 16.656 27.7036L15.8337 28.1882L15.8603 28.2364C16.5405 29.5523 16.7221 32.4354 15.2387 34.6485C13.7554 36.8628 10.9943 38.21 8.30415 37.4619C7.43611 37.22 6.12478 35.4243 7.25585 32.9213C8.25352 30.714 12.2408 28.6272 13.2915 28.1065L13.5799 27.9477C11.485 26.1146 6.25342 23.6417 5.52025 19.8432C5.31344 18.7739 5.81473 16.2168 8.95441 13.2773C11.5953 10.8055 15.2688 8.91228 18.6624 7.70584C24.3636 5.6792 30.3873 6.87466 31.314 10.5096C32.2251 14.0843 29.124 18.3603 25.1523 19.8975C21.6062 21.2698 18.6743 21.0521 17.4698 20.6565C16.1007 20.2067 15.2977 19.3033 15.1018 18.7933C15.0248 18.5937 14.8924 18.2582 15.1018 18.1427C15.2303 18.0717 15.2819 18.0886 15.6258 18.4686C15.9528 18.8295 17.2678 19.7978 19.7657 19.5174C26.3207 18.7826 30.2693 13.6863 29.0215 10.9438C28.1478 9.02421 23.0955 8.15813 16.7834 11.3058C9.07813 15.1476 8.65992 18.3146 8.59388 19.5174C8.41346 22.8262 12.6747 24.5668 14.9804 27.0275L15.0692 27.125C15.5007 26.8869 15.9565 26.6355 16.4035 26.3902C17.566 25.7514 18.6624 25.1523 19.1732 24.8732C19.9847 23.6936 21.6313 22.392 22.8202 22.392C24.7206 22.392 24.0679 25.1236 24.0679 25.1236C24.0679 25.1236 24.1064 24.9986 24.1581 24.9974C24.2121 24.9959 24.4214 24.6375 25.0081 24.8516C25.6115 25.073 25.4743 25.4964 25.4781 25.5397C25.4853 25.6237 24.7652 28.0522 24.466 29.6098C24.3228 30.3532 24.4057 30.8946 24.448 30.8946C24.5068 30.8946 24.6271 30.7057 24.7388 30.5025L24.7364 30.4964C24.7364 30.4964 24.8204 30.3425 24.9612 30.0659L24.9889 30.0081L24.9901 30.0107C25.1561 29.6859 25.3891 29.2083 25.6583 28.6166C26.186 27.4536 28.1994 22.9634 28.3701 22.4667C28.5407 21.97 28.6297 21.4564 28.7139 21.2362C28.7969 21.0161 29.5086 20.8501 30.3402 20.8561C31.1721 20.8622 31.2565 21.217 31.2622 21.2904C31.2683 21.3637 30.8668 22.3489 30.7742 23.0452C30.6829 23.7416 30.7707 24.0891 30.8464 24.6738C30.8958 25.0561 31.1349 25.541 31.4175 26.0906C32.2782 24.6833 33.7926 21.9915 33.9381 21.2373C34.0377 20.7214 34.1977 20.227 34.2819 20.0068C34.366 19.7867 35.0765 19.6208 35.9082 19.6267C36.74 19.6328 36.8241 19.9876 36.8302 20.061C36.8362 20.1344 36.4334 21.1195 36.3422 21.816C36.2507 22.5111 36.3387 22.86 36.4143 23.4445C36.4793 23.9448 36.8662 24.6172 37.2499 25.382C38.2967 24.866 39.5289 24.5197 40.9715 24.5125C41.5688 24.5091 42.2625 24.569 42.6207 24.6808V13.1737C42.6207 12.3618 42.2046 11.6138 41.5016 11.2085L22.7302 0.359001C22.0283 -0.0464249 21.1688 -0.0464249 20.4668 0.359001L1.74719 11.2033C1.04515 11.6087 0.670044 12.3581 0.670044 13.1686V34.8769C0.670044 35.6875 1.04745 36.4369 1.74834 36.8421L20.4981 47.6949C21.2 48.1016 22.0511 48.1016 22.753 47.6949L41.5113 36.8421C42.2131 36.4356 42.622 35.6873 42.622 34.8769V26.1037C42.3839 26.0336 42.0353 25.9784 41.6963 25.9389ZM21.5017 24.8021C21.0991 25.2531 20.4128 26.4161 20.0917 27.3896C19.4534 29.3223 19.7299 31.2865 20.1819 31.4045C20.7095 31.5426 21.5751 28.9591 21.9896 27.9487C22.2493 27.316 23.2591 24.5077 23.0379 24.1324C22.8652 23.8389 22.1497 24.0758 21.5017 24.8021ZM28.8045 31.3164C28.8045 31.3164 28.6771 31.4369 28.7322 31.4705C28.8068 31.515 28.9678 31.4572 29.1434 31.3657C29.6399 31.0532 30.7541 30.2737 30.7565 29.1202C30.7565 29.0866 30.7552 29.0541 30.7529 29.0192C30.4945 29.3584 30.2564 29.6603 30.0509 29.9164C29.6999 30.353 28.8045 31.3164 28.8045 31.3164Z" fill="#00FF00" fill-opacity="0.5"/>
</svg>
