<svg width="46" height="45" viewBox="0 0 46 45" fill="none" xmlns="http://www.w3.org/2000/svg">
<path fill-rule="evenodd" clip-rule="evenodd" d="M44.7908 20.53L25.171 0.911285C24.0419 -0.218801 22.2092 -0.218801 21.0787 0.911285L17.0046 4.98541L22.1727 10.1536C23.3738 9.74784 24.7509 10.02 25.7084 10.9775C26.6703 11.941 26.9405 13.3299 26.5249 14.5349L31.5056 19.5158C32.7106 19.1006 34.101 19.3693 35.0634 20.3333C36.4085 21.6778 36.4085 23.8571 35.0634 25.2027C33.7179 26.5482 31.5387 26.5482 30.1926 25.2027C29.1809 24.19 28.9309 22.7039 29.4432 21.4574L24.7982 16.8124L24.7977 29.0362C25.1256 29.1989 25.4352 29.4154 25.7084 29.6875C27.0534 31.0321 27.0534 33.2114 25.7084 34.5579C24.3629 35.903 22.1826 35.903 20.839 34.5579C19.494 33.2114 19.494 31.0321 20.839 29.6875C21.1714 29.3557 21.5559 29.1047 21.9662 28.9361V16.5984C21.5559 16.4307 21.1719 16.1812 20.839 15.8469C19.8199 14.8293 19.5749 13.3338 20.097 12.0825L15.0028 6.98722L1.55007 20.4393C0.419509 21.5703 0.419509 23.403 1.55007 24.5331L21.1699 44.1523C22.2994 45.2824 24.1316 45.2824 25.2627 44.1523L44.7908 24.6243C45.9208 23.4938 45.9208 21.6601 44.7908 20.53Z" fill="#00FF00" fill-opacity="0.5"/>
</svg>
