<svg width="48" height="48" viewBox="0 0 48 48" fill="none" xmlns="http://www.w3.org/2000/svg">
<path d="M24 9.5625C17.6 9.5625 13.6 12.7625 12 19.1625C14.4 15.9625 17.2 14.7625 20.4 15.5625C22.2258 16.0189 23.5308 17.3435 24.9752 18.8097C27.3283 21.1981 30.0516 23.9625 36 23.9625C42.4 23.9625 46.4 20.7625 48 14.3625C45.6 17.5625 42.8 18.7625 39.6 17.9625C37.7742 17.5061 36.4692 16.1815 35.0248 14.7153C32.6717 12.3269 29.9484 9.5625 24 9.5625ZM12 23.9625C5.6 23.9625 1.6 27.1625 0 33.5625C2.4 30.3625 5.2 29.1625 8.4 29.9625C10.2258 30.4189 11.5308 31.7435 12.9752 33.2097C15.3283 35.5981 18.0516 38.3625 24 38.3625C30.4 38.3625 34.4 35.1625 36 28.7625C33.6 31.9625 30.8 33.1625 27.6 32.3625C25.7742 31.9061 24.4692 30.5815 23.0248 29.1153C20.6717 26.7269 17.9484 23.9625 12 23.9625Z" fill="#00FF00" fill-opacity="0.5"/>
</svg>
