<svg width="46" height="45" viewBox="0 0 46 45" fill="none" xmlns="http://www.w3.org/2000/svg">
<g clip-path="url(#clip0_21_5618)">
<path fill-rule="evenodd" clip-rule="evenodd" d="M42.3093 0H3.58553C1.6053 0 0 1.57177 0 3.51064V41.4255C0 43.3644 1.6053 44.9362 3.58553 44.9362H42.3093C44.2895 44.9362 45.8948 43.3644 45.8948 41.4255V3.51064C45.8948 1.57177 44.2895 0 42.3093 0ZM26.9844 40.038V35.1898C27.8825 35.9272 28.8582 36.4801 29.9114 36.8487C30.9645 37.2175 32.0278 37.4018 33.1015 37.4018C33.7312 37.4018 34.2811 37.3462 34.7508 37.2351C35.2205 37.1239 35.6129 36.97 35.9277 36.7731C36.2426 36.5761 36.4776 36.3437 36.6323 36.0762C36.7872 35.8085 36.8646 35.518 36.8646 35.205C36.8646 34.7808 36.7408 34.402 36.493 34.0686C36.2452 33.7353 35.9071 33.4272 35.4787 33.1445C35.0502 32.8617 34.5418 32.5891 33.9532 32.3265C33.3648 32.0637 32.7298 31.7962 32.0484 31.5234C30.3139 30.8164 29.0209 29.9528 28.1692 28.9327C27.3173 27.9126 26.8915 26.6803 26.8915 25.236C26.8915 24.1047 27.1238 23.1326 27.5883 22.3196C28.053 21.5065 28.6853 20.8374 29.4854 20.312C30.2856 19.7868 31.2122 19.4005 32.2653 19.1532C33.3184 18.9057 34.4333 18.7819 35.6102 18.7819C36.7666 18.7819 37.7913 18.85 38.6843 18.9864C39.5773 19.1228 40.4007 19.3324 41.1544 19.6152V24.1451C40.7827 23.8927 40.3774 23.6705 39.9387 23.4786C39.4998 23.2866 39.0482 23.1276 38.5837 23.0013C38.119 22.875 37.657 22.7816 37.1976 22.721C36.7383 22.6605 36.3021 22.6301 35.889 22.6301C35.3213 22.6301 34.8049 22.6831 34.3404 22.7891C33.8757 22.8953 33.4835 23.0442 33.1635 23.2362C32.8435 23.4281 32.5955 23.6578 32.42 23.9255C32.2445 24.1932 32.1568 24.4935 32.1568 24.8269C32.1568 25.1906 32.2549 25.5162 32.451 25.8041C32.6472 26.0919 32.9259 26.3647 33.2874 26.6222C33.6486 26.8799 34.0875 27.1323 34.6036 27.3798C35.1199 27.6273 35.7031 27.8822 36.3535 28.145C37.2415 28.5085 38.0391 28.8948 38.7463 29.3038C39.4534 29.713 40.0601 30.175 40.5658 30.6902C41.0717 31.2052 41.459 31.7936 41.7273 32.4551C41.9957 33.1167 42.13 33.887 42.13 34.7657C42.13 35.9777 41.8951 36.9953 41.4254 37.8183C40.9556 38.6416 40.3181 39.3083 39.5127 39.8184C38.7076 40.3283 37.7705 40.6944 36.702 40.9167C35.6336 41.1389 34.5055 41.25 33.3184 41.25C32.1 41.25 30.9412 41.1491 29.8417 40.947C28.7422 40.745 27.7897 40.442 26.9844 40.038ZM25.0987 23.1249H18.7312V40.8989H13.6868V23.1249H7.35034V19.133H25.0987V23.1249Z" fill="#00FF00" fill-opacity="0.5"/>
</g>
<defs>
<clipPath id="clip0_21_5618">
<rect width="45.8948" height="44.9362" fill="white"/>
</clipPath>
</defs>
</svg>
