<svg width="20" height="19" viewBox="0 0 20 19" fill="none" xmlns="http://www.w3.org/2000/svg">
<g clip-path="url(#clip0_21_5382)">
<path fill-rule="evenodd" clip-rule="evenodd" d="M17.9403 0.1996H2.41998C1.62631 0.1996 0.98291 0.842998 0.98291 1.63667V17.157C0.98291 17.9507 1.62631 18.5941 2.41998 18.5941H17.9403C18.734 18.5941 19.3774 17.9507 19.3774 17.157V1.63667C19.3774 0.842998 18.734 0.1996 17.9403 0.1996ZM11.7982 16.589V14.6044C12.1581 14.9063 12.5492 15.1326 12.9713 15.2835C13.3934 15.4345 13.8195 15.5099 14.2499 15.5099C14.5023 15.5099 14.7227 15.4872 14.9109 15.4417C15.0992 15.3962 15.2565 15.3332 15.3826 15.2526C15.5088 15.1719 15.603 15.0768 15.665 14.9673C15.7271 14.8577 15.7581 14.7388 15.7581 14.6107C15.7581 14.437 15.7085 14.282 15.6092 14.1455C15.5099 14.0091 15.3744 13.883 15.2026 13.7672C15.0309 13.6514 14.8271 13.5399 14.5912 13.4324C14.3554 13.3248 14.1009 13.2153 13.8278 13.1036C13.1326 12.8142 12.6144 12.4607 12.273 12.0431C11.9316 11.6255 11.7609 11.1211 11.7609 10.5299C11.7609 10.0668 11.8541 9.66889 12.0402 9.33606C12.2265 9.00324 12.4799 8.72933 12.8006 8.51427C13.1213 8.29929 13.4927 8.14114 13.9147 8.0399C14.3368 7.93858 14.7837 7.88793 15.2554 7.88793C15.7188 7.88793 16.1296 7.9158 16.4875 7.97164C16.8454 8.02747 17.1754 8.11326 17.4775 8.22901V10.0833C17.3285 9.98001 17.166 9.88905 16.9902 9.81051C16.8143 9.7319 16.6333 9.6668 16.4472 9.61514C16.2609 9.56341 16.0757 9.52518 15.8916 9.50039C15.7075 9.4756 15.5327 9.46317 15.3671 9.46317C15.1396 9.46317 14.9326 9.48487 14.7465 9.52827C14.5602 9.57174 14.403 9.63267 14.2747 9.71128C14.1465 9.78982 14.0471 9.88387 13.9768 9.99345C13.9064 10.103 13.8713 10.226 13.8713 10.3624C13.8713 10.5113 13.9106 10.6446 13.9892 10.7624C14.0678 10.8803 14.1795 10.9919 14.3244 11.0973C14.4692 11.2028 14.6451 11.3061 14.8519 11.4075C15.0589 11.5088 15.2926 11.6131 15.5533 11.7207C15.9092 11.8695 16.2289 12.0276 16.5123 12.195C16.7957 12.3625 17.0389 12.5517 17.2416 12.7625C17.4443 12.9734 17.5995 13.2142 17.7071 13.485C17.8147 13.7558 17.8685 14.0711 17.8685 14.4308C17.8685 14.927 17.7744 15.3435 17.5861 15.6804C17.3978 16.0174 17.1423 16.2903 16.8195 16.4991C16.4968 16.7079 16.1212 16.8578 15.693 16.9487C15.2647 17.0397 14.8126 17.0852 14.3368 17.0852C13.8485 17.0852 13.384 17.0439 12.9434 16.9612C12.5027 16.8785 12.1209 16.7544 11.7982 16.589ZM11.0424 9.66573H8.49031V16.9415H6.46854V9.66573H3.9289V8.03163H11.0424V9.66573Z" fill="#00FF00" fill-opacity="0.5"/>
</g>
<defs>
<clipPath id="clip0_21_5382">
<rect width="18.3945" height="18.3945" fill="white" transform="translate(0.98291 0.1996)"/>
</clipPath>
</defs>
</svg>
